<?xml version="1.0" standalone="no"?>
<!DOCTYPE svg PUBLIC "-//W3C//DTD SVG 20010904//EN"
 "http://www.w3.org/TR/2001/REC-SVG-20010904/DTD/svg10.dtd">
<svg version="1.0" xmlns="http://www.w3.org/2000/svg"
 width="200.000000pt" height="200.000000pt" viewBox="0 0 200.000000 200.000000"
 preserveAspectRatio="xMidYMid meet">
<metadata>
Created by potrace 1.15, written by Peter Selinger 2001-2017
</metadata>
<g transform="translate(0.000000,200.000000) scale(0.100000,-0.100000)"
fill="#000000" stroke="none">
<path d="M1080 1860 c-41 -11 -108 -35 -148 -54 -40 -20 -76 -36 -81 -36 -15
0 -164 -101 -236 -160 -38 -32 -94 -83 -123 -113 -48 -48 -53 -57 -43 -76 15
-27 125 -110 195 -147 l54 -28 39 37 c77 76 196 114 327 104 96 -8 151 -33
225 -101 64 -61 88 -97 126 -191 24 -59 29 -84 29 -160 0 -81 -3 -96 -32 -152
-17 -34 -36 -64 -42 -68 -13 -8 -13 -5 5 45 8 23 15 63 15 89 l-1 46 -32 -35
c-46 -51 -191 -170 -271 -223 -92 -62 -386 -210 -461 -233 -40 -12 -91 -18
-155 -18 -113 1 -180 21 -268 84 -46 32 -62 49 -71 80 -13 45 -56 100 -77 100
-19 0 -18 -14 7 -63 41 -79 80 -127 137 -166 160 -108 308 -151 522 -151 151
0 342 33 465 80 15 6 30 8 32 6 10 -9 -49 -103 -101 -162 -78 -87 -213 -154
-280 -139 -51 12 -149 11 -153 -1 -6 -17 68 -34 150 -34 297 0 622 309 769
733 12 37 26 67 29 67 13 0 58 -117 69 -179 13 -72 7 -136 -21 -227 -16 -50
-28 -69 -64 -99 -39 -31 -75 -80 -75 -100 0 -20 40 3 84 48 64 66 110 159 132
269 25 121 15 321 -21 443 -32 108 -96 255 -153 349 -24 38 -41 70 -39 72 7 7
105 -24 157 -50 69 -34 160 -117 194 -177 19 -33 26 -60 26 -96 0 -53 23 -123
40 -123 28 0 1 165 -42 257 -28 59 -159 198 -236 250 -31 21 -59 41 -62 44
-11 13 -128 67 -200 92 -103 35 -187 53 -310 68 -58 6 -109 15 -113 19 -13 11
95 88 164 117 56 23 79 26 180 27 l116 1 37 -33 c43 -37 75 -52 113 -52 21 0
23 2 13 15 -26 31 -125 88 -184 106 -81 25 -251 24 -356 -1z"/>
</g>
</svg>
